HIERARCHY
ROOT Hips
{
  OFFSET 51.931 93.9793 24.4289
  CHANNELS 6 Xposition Yposition Zposition Zrotation Xrotation Yrotation
  JOINT spine
  {
    OFFSET 0 7.4756 0.429885
    CHANNELS 3 Zrotation Xrotation Yrotation
    JOINT spine1
    {
      OFFSET 0 9.92301 0
      CHANNELS 3 Zrotation Xrotation Yrotation
      JOINT spine2
      {
        OFFSET 0 9.50804 0
        CHANNELS 3 Zrotation Xrotation Yrotation
        JOINT Neck
        {
          OFFSET 0 24.4111 1.16384
          CHANNELS 3 Zrotation Xrotation Yrotation
          JOINT Head
          {
            OFFSET 0 7.37523 0
            CHANNELS 3 Zrotation Xrotation Yrotation
            End Site
            {
              OFFSET 0 17.8522 -5.88741
            }
          }
        }
        JOINT RightShoulder
        {
          OFFSET -4.00356 10.2679 -0.557468
          CHANNELS 3 Zrotation Xrotation Yrotation
          JOINT RightArm
          {
            OFFSET 0 13.4673 0
            CHANNELS 3 Zrotation Xrotation Yrotation
            JOINT RightArmRoll
            {
              OFFSET 0 6.79858 0
              CHANNELS 3 Zrotation Xrotation Yrotation
              JOINT RightForeArm
              {
                OFFSET 0 19.8018 0
                CHANNELS 3 Zrotation Xrotation Yrotation
                JOINT RightForeArmRoll
                {
                  OFFSET 0 7.62905 0
                  CHANNELS 3 Zrotation Xrotation Yrotation
                  JOINT RightHand
                  {
                    OFFSET 0 15.3098 0
                    CHANNELS 3 Zrotation Xrotation Yrotation
                    End Site
                    {
                      OFFSET 0 0 0
                    }
                  }
                }
              }
            }
          }
        }
        JOINT LeftShoulder
        {
          OFFSET 4.00356 10.2679 -0.557468
          CHANNELS 3 Zrotation Xrotation Yrotation
          JOINT LeftArm
          {
            OFFSET 0 13.4673 0
            CHANNELS 3 Zrotation Xrotation Yrotation
            JOINT LeftArmRoll
            {
              OFFSET 0 6.79858 0
              CHANNELS 3 Zrotation Xrotation Yrotation
              JOINT LeftForeArm
              {
                OFFSET 0 19.8018 0
                CHANNELS 3 Zrotation Xrotation Yrotation
                JOINT LeftForeArmRoll
                {
                  OFFSET 0 7.62905 0
                  CHANNELS 3 Zrotation Xrotation Yrotation
                  JOINT LeftHand
                  {
                    OFFSET 0 15.3098 0
                    CHANNELS 3 Zrotation Xrotation Yrotation
                    End Site
                    {
                      OFFSET 0 0 0
                    }
                  }
                }
              }
            }
          }
        }
      }
    }
  }
  JOINT RightUpLeg
  {
    OFFSET -6.62609 -1.21505 -1.01927
    CHANNELS 3 Zrotation Xrotation Yrotation
    JOINT RightUpLegRoll
    {
      OFFSET 0 17.9517 0
      CHANNELS 3 Zrotation Xrotation Yrotation
      JOINT RightLeg
      {
        OFFSET 0 -22.2304 0
        CHANNELS 3 Zrotation Xrotation Yrotation
        JOINT RightLegRoll
        {
          OFFSET 0 22.3032 0
          CHANNELS 3 Zrotation Xrotation Yrotation
          JOINT RightFoot
          {
            OFFSET 0 18.5636 0
            CHANNELS 3 Zrotation Xrotation Yrotation
            JOINT RightToeBase
            {
              OFFSET 0 15.5183 0
              CHANNELS 3 Zrotation Xrotation Yrotation
              End Site
              {
                OFFSET 0.00657761 7.51538 -0.866263
              }
            }
          }
        }
      }
    }
  }
  JOINT LeftUpLeg
  {
    OFFSET 6.62609 -1.21505 -1.01927
    CHANNELS 3 Zrotation Xrotation Yrotation
    JOINT LeftUpLegRoll
    {
      OFFSET 0 17.9518 0
      CHANNELS 3 Zrotation Xrotation Yrotation
      JOINT LeftLeg
      {
        OFFSET 0 22.2303 0
        CHANNELS 3 Zrotation Xrotation Yrotation
        JOINT LeftLegRoll
        {
          OFFSET 0 22.5093 0
          CHANNELS 3 Zrotation Xrotation Yrotation
          JOINT LeftFoot
          {
            OFFSET 0 18.3575 0
            CHANNELS 3 Zrotation Xrotation Yrotation
            JOINT LeftToeBase
            {
              OFFSET 0 15.5183 0
              CHANNELS 3 Zrotation Xrotation Yrotation
              End Site
              {
                OFFSET -0.029478 7.51538 -0.866263
              }
            }
          }
        }
      }
    }
  }
}
MOTION
Frames: 11
Frame Time: 0.00208333
51.4358 61.1922 -12.3813 -1.87964 -26.8212 -8.63325 -0.539946 4.00293 -0.737601 -1.04534 12.0145 -1.36025 -1.03255 13.6592 -1.34613 -19.4889 2.80468 6.02148 19.0868 3.17348 3.95152 62.5277 4.5919 2.13463 110.913 32.1167 19.4786 1.47356e-006 3.36448e-006 -4.71564e-006 -0.597574 0.00124515 -1.48041 1.74865e-005 -7.56576e-006 -3.05215 8.03026 -4.95134 0.697637 -75.7192 -9.32099 5.98517 -93.9968 18.6204 -22.8224 -3.57944e-007 8.15872e-007 3.48168e-006 -1.67619 0.0417483 0.807285 -7.8975e-006 1.90129e-006 3.01088 -8.03008 -4.95136 -0.69764 -158.584 51.9826 -9.50611 180 1.52403e-005 177.176 -109.412 83.4812 109.798 7.81226e-006 -4.93471e-006 2.26955 -16.0983 62.2937 15.6618 8.43729 28.0806 -5.60151 -158.896 49.5217 -28.549 4.54188e-006 -4.6773e-006 -1.8069 62.4045 -84.9316 63.2153 2.69273e-006 2.77701e-007 -2.29796 19.5679 64.4749 -16.7604 -8.71969 33.2567 3.78241 
51.4414 61.197 -12.3978 -1.89524 -26.8364 -8.65142 -0.53452 4.00509 -0.73976 -1.0334 12.0188 -1.3677 -1.02048 13.6635 -1.35381 -19.5542 2.85809 6.04766 19.1028 3.14692 3.96192 62.4452 4.59532 2.15089 111.021 32.1133 19.4294 1.47356e-006 3.36448e-006 -4.71564e-006 -0.596542 0.0015673 -1.48045 1.74865e-005 -7.56576e-006 -3.05165 8.03026 -4.95134 0.697637 -75.779 -9.28608 5.97079 -93.9212 18.598 -22.8376 -3.57944e-007 8.15872e-007 3.48168e-006 -1.69561 0.0700216 0.808259 -7.8975e-006 1.90129e-006 3.01088 -8.03008 -4.95136 -0.69764 -158.573 51.9748 -9.50997 180 1.52403e-005 177.176 -109.417 83.4837 109.802 7.81226e-006 -4.93471e-006 2.26955 -16.0954 62.2885 15.6582 8.43071 28.0328 -5.56538 -158.873 49.512 -28.5605 4.54188e-006 -4.6773e-006 -1.80685 62.362 -84.9273 63.1717 2.69273e-006 2.77701e-007 -2.29712 19.5416 64.4365 -16.7343 -8.72167 33.2815 3.78365 
51.44 61.1931 -12.3965 -1.9112 -26.8512 -8.6698 -0.52898 4.00718 -0.742036 -1.02119 12.0229 -1.3755 -1.00814 13.6677 -1.36184 -19.6211 2.91126 6.07446 19.1189 3.12132 3.97254 62.3606 4.59933 2.16784 111.131 32.1093 19.3805 1.47356e-006 3.36448e-006 -4.71564e-006 -0.596387 0.00189123 -1.48051 1.74865e-005 -7.56576e-006 -3.05115 8.03026 -4.95134 0.697637 -75.8406 -9.25078 5.95626 -93.8442 18.5748 -22.8542 -3.57944e-007 8.15872e-007 3.48168e-006 -1.71443 0.0982488 0.809226 -7.8975e-006 1.90129e-006 3.01088 -8.03008 -4.95136 -0.69764 -158.561 51.9668 -9.51443 180 1.52402e-005 177.175 -109.426 83.4862 109.811 7.81226e-006 -4.93471e-006 2.26949 -16.0924 62.283 15.6545 8.42436 27.986 -5.53007 -158.85 49.5023 -28.5718 4.54188e-006 -4.6773e-006 -1.80678 62.3182 -84.923 63.1268 2.69273e-006 2.77701e-007 -2.29636 19.5155 64.3986 -16.7087 -8.7236 33.3059 3.78486 
51.4386 61.1701 -12.3821 -1.92741 -26.8659 -8.68835 -0.523359 4.0092 -0.744394 -1.00879 12.027 -1.38353 -0.995599 13.6717 -1.37011 -19.689 2.96428 6.10168 19.1352 3.09639 3.98332 62.2746 4.60375 2.18527 111.243 32.1046 19.3319 1.47356e-006 3.36448e-006 -4.71564e-006 -0.596849 0.00221642 -1.48059 1.74865e-005 -7.56576e-006 -3.05066 8.03026 -4.95134 0.697637 -75.9035 -9.2152 5.94162 -93.766 18.5511 -22.872 -3.57944e-007 8.15872e-007 3.48168e-006 -1.73281 0.126444 0.810188 -7.8975e-006 1.90129e-006 3.01088 -8.03008 -4.95136 -0.69764 -158.548 51.9587 -9.51931 180 1.52402e-005 177.174 -109.438 83.4887 109.822 7.81226e-006 -4.93471e-006 2.26941 -16.0893 62.2774 15.6506 8.4182 27.9398 -5.49533 -158.826 49.4926 -28.5831 4.54188e-006 -4.6773e-006 -1.8067 62.2733 -84.9187 63.081 2.69273e-006 2.77701e-007 -2.29565 19.4897 64.3612 -16.6835 -8.7255 33.3299 3.78606 
51.4395 61.1733 -12.3897 -1.94378 -26.8805 -8.70699 -0.517691 4.0112 -0.746799 -0.99628 12.031 -1.3917 -0.98295 13.6757 -1.37852 -19.7577 3.01719 6.12915 19.1516 3.07186 3.99419 62.1878 4.6084 2.20298 111.355 32.0997 19.2833 1.47356e-006 3.36448e-006 -4.71564e-006 -0.597668 0.00254233 -1.48067 1.74865e-005 -7.56576e-006 -3.05017 8.03026 -4.95134 0.697637 -75.9671 -9.17946 5.92693 -93.6871 18.5271 -22.8904 -3.57944e-007 8.15872e-007 3.48168e-006 -1.75096 0.15462 0.811148 -7.8975e-006 1.90129e-006 3.01088 -8.03008 -4.95136 -0.69764 -158.535 51.9505 -9.52443 180 1.52402e-005 177.174 -109.451 83.4911 109.835 7.81226e-006 -4.93471e-006 2.26931 -16.0862 62.2716 15.6467 8.41217 27.894 -5.46093 -158.802 49.483 -28.5943 4.54188e-006 -4.6773e-006 -1.8066 62.2278 -84.9144 63.0346 2.69273e-006 2.77701e-007 -2.29498 19.4641 64.3239 -16.6585 -8.72738 33.3537 3.78725 
51.4428 61.17 -12.3832 -1.96019 -26.895 -8.72566 -0.51201 4.01318 -0.749216 -0.983738 12.0349 -1.39991 -0.970269 13.6797 -1.38696 -19.8265 3.07008 6.1567 19.168 3.04743 4.00508 62.1007 4.61313 2.22077 111.468 32.0947 19.2349 1.47356e-006 3.36448e-006 -4.71564e-006 -0.598584 0.00286844 -1.48076 1.74865e-005 -7.56576e-006 -3.04968 8.03026 -4.95134 0.697637 -76.0309 -9.14368 5.91223 -93.6081 18.5029 -22.909 -3.57944e-007 8.15872e-007 3.48168e-006 -1.76903 0.182791 0.812107 -7.8975e-006 1.90129e-006 3.01088 -8.03008 -4.95136 -0.69764 -158.523 51.9423 -9.52961 180 1.52402e-005 177.173 -109.465 83.4935 109.848 7.81226e-006 -4.93471e-006 2.26921 -16.083 62.2659 15.6428 8.40623 27.8483 -5.42666 -158.779 49.4733 -28.6055 4.54188e-006 -4.6773e-006 -1.80651 62.1825 -84.9102 62.9883 2.69273e-006 2.77701e-007 -2.29431 19.4386 64.2867 -16.6336 -8.72925 33.3775 3.78844 
51.4427 61.1656 -12.3845 -1.97656 -26.9095 -8.7443 -0.50635 4.01518 -0.751613 -0.971245 12.0389 -1.40805 -0.957638 13.6837 -1.39535 -19.8952 3.123 6.18414 19.1843 3.02283 4.01594 62.014 4.61774 2.23843 111.58 32.0898 19.1863 1.47356e-006 3.36448e-006 -4.71564e-006 -0.599337 0.00319422 -1.48084 1.74865e-005 -7.56576e-006 -3.04918 8.03026 -4.95134 0.697637 -76.0943 -9.10796 5.89756 -93.5295 18.479 -22.9273 -3.57944e-007 8.15872e-007 3.48168e-006 -1.78722 0.21097 0.813067 -7.8975e-006 1.90129e-006 3.01088 -8.03008 -4.95136 -0.69764 -158.51 51.9342 -9.53468 180 1.52402e-005 177.172 -109.478 83.496 109.861 7.81226e-006 -4.93471e-006 2.26912 -16.0798 62.2601 15.6389 8.40031 27.8024 -5.39228 -158.755 49.4637 -28.6167 4.54188e-006 -4.6773e-006 -1.80641 62.1374 -84.9059 62.9422 2.69273e-006 2.77701e-007 -2.29363 19.4131 64.2494 -16.6088 -8.73113 33.4013 3.78963 
51.4454 61.1607 -12.4 -1.99276 -26.9242 -8.76283 -0.500745 4.01721 -0.753953 -0.958881 12.043 -1.41603 -0.945137 13.6877 -1.40356 -19.9631 3.17602 6.2113 19.2006 2.99776 4.02668 61.9283 4.62207 2.25576 111.691 32.0852 19.1376 1.47356e-006 3.36448e-006 -4.71564e-006 -0.599668 0.00351914 -1.48091 1.74865e-005 -7.56576e-006 -3.04869 8.03026 -4.95134 0.697637 -76.1568 -9.07243 5.88297 -93.4516 18.4554 -22.9449 -3.57944e-007 8.15872e-007 3.48168e-006 -1.80571 0.239172 0.814032 -7.8975e-006 1.90129e-006 3.01088 -8.03008 -4.95136 -0.69764 -158.498 51.9261 -9.53946 180 1.52402e-005 177.172 -109.489 83.4984 109.871 7.81226e-006 -4.93471e-006 2.26904 -16.0767 62.2545 15.6351 8.39438 27.756 -5.35755 -158.732 49.454 -28.6279 4.54188e-006 -4.6773e-006 -1.80633 62.093 -84.9016 62.8969 2.69273e-006 2.77701e-007 -2.29291 19.3876 64.2118 -16.5838 -8.73304 33.4254 3.79084 
51.4464 61.1584 -12.3977 -2.0087 -26.9391 -8.7812 -0.49523 4.01932 -0.756202 -0.946725 12.0472 -1.42375 -0.932849 13.6919 -1.41151 -20.0299 3.22922 6.23801 19.2168 2.97194 4.03726 61.8441 4.62594 2.27255 111.8 32.0811 19.0887 1.47356e-006 3.36448e-006 -4.71564e-006 -0.599315 0.00384267 -1.48097 1.74865e-005 -7.56576e-006 -3.04819 8.03026 -4.95134 0.697637 -76.218 -9.03721 5.8685 -93.3749 18.4324 -22.9612 -3.57944e-007 8.15872e-007 3.48168e-006 -1.82466 0.267409 0.815001 -7.8975e-006 1.90129e-006 3.01088 -8.03008 -4.95136 -0.69764 -158.486 51.9182 -9.54378 180 1.52402e-005 177.171 -109.497 83.5009 109.879 7.81226e-006 -4.93471e-006 2.269 -16.0738 62.2491 15.6314 8.38839 27.7088 -5.32226 -158.708 49.4443 -28.6393 4.54188e-006 -4.6773e-006 -1.80627 62.05 -84.8972 62.8527 2.69273e-006 2.77701e-007 -2.29213 19.3619 64.1738 -16.5586 -8.73499 33.4499 3.79207 
51.4298 61.1818 -12.4035 -2.02428 -26.9544 -8.79934 -0.489838 4.02151 -0.758327 -0.934856 12.0515 -1.43111 -0.920853 13.6963 -1.4191 -20.0952 3.28264 6.26408 19.2328 2.9451 4.04759 61.7622 4.62918 2.2886 111.907 32.0778 19.0395 1.47356e-006 3.36448e-006 -4.71564e-006 -0.598019 0.00416428 -1.481 1.74865e-005 -7.56576e-006 -3.04769 8.03026 -4.95134 0.697637 -76.2771 -9.0024 5.8542 -93.3 18.4103 -22.9758 -3.57944e-007 8.15872e-007 3.48168e-006 -1.84427 0.295696 0.815979 -7.8975e-006 1.90129e-006 3.01088 -8.03008 -4.95136 -0.69764 -158.475 51.9105 -9.54746 180 1.52402e-005 177.17 -109.501 83.5034 109.882 7.81226e-006 -4.93471e-006 2.269 -16.071 62.2439 15.6279 8.38229 27.6606 -5.28618 -158.685 49.4346 -28.6507 4.54188e-006 -4.6773e-006 -1.80623 62.0086 -84.8929 62.8102 2.69273e-006 2.77701e-007 -2.29127 19.3361 64.1352 -16.533 -8.73699 33.4749 3.79333 
51.4337 61.1729 -12.4043 -2.03939 -26.97 -8.81719 -0.484602 4.02381 -0.760292 -0.923354 12.0561 -1.438 -0.909231 13.7009 -1.42621 -20.1584 3.33637 6.28935 19.2487 2.91694 4.05762 61.683 4.63162 2.30371 112.011 32.0755 18.9898 1.47356e-006 3.36448e-006 -4.71564e-006 -0.595521 0.00448346 -1.481 1.74865e-005 -7.56576e-006 -3.04718 8.03026 -4.95134 0.697637 -76.3338 -8.96813 5.84011 -93.2272 18.3892 -22.9883 -3.57944e-007 8.15872e-007 3.48168e-006 -1.86471 0.324046 0.816967 -7.8975e-006 1.90129e-006 3.01088 -8.03008 -4.95136 -0.69764 -158.465 51.903 -9.55032 180 1.52402e-005 177.17 -109.5 83.5061 109.881 7.81226e-006 -4.93471e-006 2.26906 -16.0684 62.2391 15.6246 8.37604 27.6111 -5.24908 -158.662 49.4249 -28.6624 4.54188e-006 -4.6773e-006 -1.80622 61.9692 -84.8886 62.7695 2.69273e-006 2.77701e-007 -2.2903 19.31 64.0958 -16.507 -8.73906 33.5006 3.79462 
